<?xml version="1.0" standalone="no"?>
<!DOCTYPE svg PUBLIC "-//W3C//DTD SVG 20010904//EN"
 "http://www.w3.org/TR/2001/REC-SVG-20010904/DTD/svg10.dtd">
<svg version="1.0" xmlns="http://www.w3.org/2000/svg"
 width="200.000000pt" height="200.000000pt" viewBox="0 0 200.000000 200.000000"
 preserveAspectRatio="xMidYMid meet">
<metadata>
Created by potrace 1.14, written by Peter Selinger 2001-2017
</metadata>
<g transform="translate(0.000000,200.000000) scale(0.100000,-0.100000)"
fill="#000000" stroke="none">
<path d="M287 1868 c-40 -22 -19 -52 148 -217 l166 -163 -90 -91 c-49 -51
-128 -132 -175 -182 l-86 -90 0 -360 c0 -374 1 -385 41 -385 10 0 92 75 183
166 91 91 169 164 174 162 5 -1 84 -75 175 -162 l166 -160 -1 -151 c-1 -84 2
-157 6 -164 4 -6 15 -11 26 -11 21 0 28 25 28 95 0 28 1 87 1 133 l1 82 333 0
c361 0 377 2 363 51 -3 13 -78 96 -165 184 l-160 159 84 86 c148 151 209 215
237 249 l28 32 -1 355 c-1 348 -2 355 -22 369 -12 8 -26 15 -31 15 -4 0 -84
-76 -177 -170 l-168 -169 -142 137 c-79 75 -154 149 -167 164 -14 15 -39 32
-56 37 -40 12 -697 12 -719 -1z m695 -54 c9 -3 18 -10 21 -17 3 -9 -56 -12
-259 -12 -160 0 -264 -3 -264 -9 0 -5 93 -103 208 -218 114 -115 209 -211 212
-214 5 -5 -20 -24 -32 -24 -3 0 -82 73 -173 163 -92 89 -205 198 -251 243 -46
45 -84 83 -84 86 0 6 599 8 622 2z m728 -63 c0 -26 -35 -64 -236 -265 -204
-204 -234 -237 -225 -254 11 -20 15 -62 12 -124 -2 -63 -16 -42 -16 25 0 44
-6 73 -22 102 l-21 40 251 253 c139 138 253 252 254 252 2 0 3 -13 3 -29z
m-1045 -321 c6 -10 -62 -89 -123 -144 -21 -19 -72 -40 -79 -33 -6 6 171 187
183 187 7 0 16 -5 19 -10z m418 -143 c26 -11 23 -12 -36 -12 -54 0 -69 -4
-100 -28 -78 -60 -96 -171 -38 -242 10 -13 5 -11 -13 5 -86 76 -59 228 49 276
37 16 101 17 138 1z m-687 -156 l-48 -49 -4 -293 c-4 -243 -7 -296 -19 -308
-13 -14 -15 22 -15 304 l0 320 33 21 c33 23 88 53 97 54 2 0 -17 -22 -44 -49z
m489 -201 c8 -13 -1 -27 -60 -96 -100 -116 -97 -114 -122 -89 -13 14 -6 25 74
105 48 49 91 89 95 89 4 1 10 -3 13 -9z m255 -10 c-27 -22 -101 -45 -137 -43
-57 2 -66 3 -59 11 4 4 33 7 64 8 35 0 75 9 102 22 57 26 61 26 30 2z"/>
</g>
</svg>
